<?xml version="1.0" encoding="UTF-8" standalone="no"?>
<svg
   width="24"
   height="24"
   viewBox="0 0 24 24"
   fill="none"
   version="1.1"
   id="svg10"
   sodipodi:docname="channel-permissions.svg"
   inkscape:version="1.1 (c68e22c387, 2021-05-23)"
   xmlns:inkscape="http://www.inkscape.org/namespaces/inkscape"
   xmlns:sodipodi="http://sodipodi.sourceforge.net/DTD/sodipodi-0.dtd"
   xmlns="http://www.w3.org/2000/svg"
   xmlns:svg="http://www.w3.org/2000/svg">
  <defs
     id="defs14" />
  <sodipodi:namedview
     id="namedview12"
     pagecolor="#ffffff"
     bordercolor="#666666"
     borderopacity="1.0"
     inkscape:pageshadow="2"
     inkscape:pageopacity="0.0"
     inkscape:pagecheckerboard="0"
     showgrid="false"
     inkscape:zoom="14.265625"
     inkscape:cx="5.1522453"
     inkscape:cy="10.269441"
     inkscape:window-width="1920"
     inkscape:window-height="1137"
     inkscape:window-x="-8"
     inkscape:window-y="-8"
     inkscape:window-maximized="1"
     inkscape:current-layer="svg10" />
  <path
     fill-rule="evenodd"
     clip-rule="evenodd"
     d="m 17.688933,2.7555603 c 1.9636,0 3.555467,1.5918666 3.555467,3.5555466 0,1.96368 -1.591867,3.55556 -3.555467,3.55556 H 9.7948268 c 0.9220002,-0.90348 1.4940672,-2.1627066 1.4940672,-3.55556 0,-1.39284 -0.572067,-2.6520666 -1.4940672,-3.5555466 z m -11.3778262,0 c -1.96368,0 -3.5555466,1.5918666 -3.5555466,3.5555466 0,1.96368 1.5918666,3.55556 3.5555466,3.55556 1.96368,0 3.55556,-1.59188 3.55556,-3.55556 0,-1.96368 -1.59188,-3.5555466 -3.55556,-3.5555466 z M 21.2444,17.688933 c 0,1.9636 -1.591867,3.555467 -3.555467,3.555467 -1.963732,0 -3.5556,-1.591867 -3.5556,-3.555467 0,-1.963733 1.591868,-3.5556 3.5556,-3.5556 1.9636,0 3.555467,1.591867 3.555467,3.5556 z m -3.555467,-6.40004 H 6.3111068 c -2.7491466,0 -4.9777733,-2.2286261 -4.9777733,-4.9777861 0,-2.7491466 2.2286267,-4.9777733 4.9777733,-4.9777733 H 17.688933 c 2.749067,0 4.977733,2.2286267 4.977733,4.9777733 0,2.74916 -2.228666,4.9777861 -4.977733,4.9777861 z M 6.3111068,12.711106 H 17.688933 c 2.749067,0 4.977733,2.228627 4.977733,4.977827 0,2.749067 -2.228666,4.977733 -4.977733,4.977733 H 6.3111068 c -2.7491466,0 -4.9777733,-2.228666 -4.9777733,-4.977733 0,-2.7492 2.2286267,-4.977827 4.9777733,-4.977827 z"
     fill="white"
     id="path8"
     style="fill:#ffffff;stroke-width:1.33333" />
</svg>
