<?xml version="1.0" encoding="UTF-8" standalone="no"?>
<svg
   enable-background="new 0 0 24 24"
   height="24"
   viewBox="0 0 24 24"
   width="24"
   version="1.1"
   id="svg14"
   sodipodi:docname="integrations.svg"
   inkscape:version="1.1 (c68e22c387, 2021-05-23)"
   xmlns:inkscape="http://www.inkscape.org/namespaces/inkscape"
   xmlns:sodipodi="http://sodipodi.sourceforge.net/DTD/sodipodi-0.dtd"
   xmlns="http://www.w3.org/2000/svg"
   xmlns:svg="http://www.w3.org/2000/svg">
  <defs
     id="defs18" />
  <sodipodi:namedview
     id="namedview16"
     pagecolor="#ffffff"
     bordercolor="#666666"
     borderopacity="1.0"
     inkscape:pageshadow="2"
     inkscape:pageopacity="0.0"
     inkscape:pagecheckerboard="0"
     showgrid="false"
     inkscape:zoom="32.458333"
     inkscape:cx="12"
     inkscape:cy="13.817715"
     inkscape:window-width="1920"
     inkscape:window-height="1137"
     inkscape:window-x="-8"
     inkscape:window-y="-8"
     inkscape:window-maximized="1"
     inkscape:current-layer="svg14" />
  <g
     id="g12"
     style="fill:#ffffff">
    <circle
       cx="12"
       cy="3.5"
       fill="none"
       r=".75"
       id="circle4"
       style="fill:#ffffff" />
    <circle
       cx="12"
       cy="3.5"
       fill="none"
       r=".75"
       id="circle6"
       style="fill:#ffffff" />
    <circle
       cx="12"
       cy="3.5"
       fill="none"
       r=".75"
       id="circle8"
       style="fill:#ffffff" />
    <path
       d="M19,3h-4.18C14.4,1.84,13.3,1,12,1S9.6,1.84,9.18,3H5C4.86,3,4.73,3.01,4.6,3.04C4.21,3.12,3.86,3.32,3.59,3.59 c-0.18,0.18-0.33,0.4-0.43,0.64C3.06,4.46,3,4.72,3,5v14c0,0.27,0.06,0.54,0.16,0.78c0.1,0.24,0.25,0.45,0.43,0.64 c0.27,0.27,0.62,0.47,1.01,0.55C4.73,20.99,4.86,21,5,21h14c1.1,0,2-0.9,2-2V5C21,3.9,20.1,3,19,3z M11,14.17l-1.41,1.42L6,12 l3.59-3.59L11,9.83L8.83,12L11,14.17z M12,4.25c-0.41,0-0.75-0.34-0.75-0.75S11.59,2.75,12,2.75s0.75,0.34,0.75,0.75 S12.41,4.25,12,4.25z M14.41,15.59L13,14.17L15.17,12L13,9.83l1.41-1.42L18,12L14.41,15.59z"
       id="path10"
       style="fill:#ffffff" />
  </g>
</svg>
