<?xml version="1.0" encoding="UTF-8" standalone="no"?>
<svg
   width="24"
   height="24"
   viewBox="0 0 24 24"
   fill="none"
   version="1.1"
   id="svg6"
   sodipodi:docname="partner-program.svg"
   inkscape:version="1.1 (c68e22c387, 2021-05-23)"
   xmlns:inkscape="http://www.inkscape.org/namespaces/inkscape"
   xmlns:sodipodi="http://sodipodi.sourceforge.net/DTD/sodipodi-0.dtd"
   xmlns="http://www.w3.org/2000/svg"
   xmlns:svg="http://www.w3.org/2000/svg">
  <defs
     id="defs10" />
  <sodipodi:namedview
     id="namedview8"
     pagecolor="#ffffff"
     bordercolor="#666666"
     borderopacity="1.0"
     inkscape:pageshadow="2"
     inkscape:pageopacity="0.0"
     inkscape:pagecheckerboard="0"
     showgrid="false"
     scale-x="1.25"
     inkscape:zoom="24.34375"
     inkscape:cx="9.4274711"
     inkscape:cy="12.713736"
     inkscape:window-width="1920"
     inkscape:window-height="1137"
     inkscape:window-x="-8"
     inkscape:window-y="-8"
     inkscape:window-maximized="1"
     inkscape:current-layer="svg6" />
  <g
     id="g14"
     transform="matrix(0.74074073,0,0,0.74074073,-9.0701558e-8,-0.15864384)"
     style="fill:#ffffff">
    <path
       d="m 23.95899,11.204149 -4.134544,2.636246 c -0.590591,0.292916 -0.885937,0.292916 -1.47663,0 -0.295346,-0.292916 -0.885937,-0.585833 -1.181284,-0.878749 -1.181283,-0.292916 -2.067221,0 -2.95326,0.585833 l -1.47663,0.878748 -7.3830483,4.979678 C 3.581658,20.284654 1.5143861,19.991737 0.62841622,18.234139 -0.55287865,16.769557 0.03776899,14.719144 1.5143861,13.547479 L 10.374075,7.689093 c 2.362567,-1.4646015 5.315827,-2.050434 7.973741,-1.4646015 2.362568,0.5858426 4.134544,1.7575177 5.611174,3.5150355 0.590692,0.585873 0.295346,1.171705 0,1.464622 z"
       fill="currentColor"
       id="path2"
       style="stroke-width:1.0125;fill:#ffffff" />
    <path
       d="m 32.4,16.345826 c 0,1.164679 -0.58968,2.329459 -1.474302,2.911849 l -9.140343,5.823596 c -1.769141,1.164679 -3.538283,1.747069 -5.602264,1.747069 -0.88452,0 -1.4742,0 -2.358821,-0.291195 -2.35872,-0.582289 -4.1278816,-1.747069 -5.6021423,-3.494138 -0.2948502,-0.58239 0,-1.16478 0.2948602,-1.455873 L 12.64491,18.96648 c 0.29484,-0.291195 0.88452,-0.291195 1.17936,0 0.589781,0.291195 1.179461,0.58239 1.474301,0.873484 1.179461,0 2.063981,0 2.948501,-0.582289 l 2.063982,-1.16478 5.897002,-4.076528 0.884621,-0.58239 c 1.4742,-0.873483 3.833021,-0.582288 4.717643,0.873585 C 32.4,15.181147 32.4,15.763436 32.4,16.345826 Z"
       fill="currentColor"
       id="path4"
       style="stroke-width:1.0125;fill:#ffffff" />
  </g>
</svg>
