<?xml version="1.0" encoding="UTF-8" standalone="no"?>
<svg
   enable-background="new 0 0 24 24"
   height="24"
   viewBox="0 0 24 24"
   width="24"
   version="1.1"
   id="svg16"
   sodipodi:docname="server-insights.svg"
   inkscape:version="1.1 (c68e22c387, 2021-05-23)"
   xmlns:inkscape="http://www.inkscape.org/namespaces/inkscape"
   xmlns:sodipodi="http://sodipodi.sourceforge.net/DTD/sodipodi-0.dtd"
   xmlns="http://www.w3.org/2000/svg"
   xmlns:svg="http://www.w3.org/2000/svg">
  <defs
     id="defs20" />
  <sodipodi:namedview
     id="namedview18"
     pagecolor="#ffffff"
     bordercolor="#666666"
     borderopacity="1.0"
     inkscape:pageshadow="2"
     inkscape:pageopacity="0.0"
     inkscape:pagecheckerboard="0"
     showgrid="false"
     inkscape:zoom="32.458333"
     inkscape:cx="12"
     inkscape:cy="11.630295"
     inkscape:window-width="1920"
     inkscape:window-height="1137"
     inkscape:window-x="-8"
     inkscape:window-y="-8"
     inkscape:window-maximized="1"
     inkscape:current-layer="svg16" />
  <g
     id="g4"
     style="fill:#000000" />
  <g
     id="g14"
     style="fill:#ffffff">
    <g
       id="g12"
       style="fill:#ffffff">
      <path
         d="M21,8c-1.45,0-2.26,1.44-1.93,2.51l-3.55,3.56c-0.3-0.09-0.74-0.09-1.04,0l-2.55-2.55C12.27,10.45,11.46,9,10,9 c-1.45,0-2.27,1.44-1.93,2.52l-4.56,4.55C2.44,15.74,1,16.55,1,18c0,1.1,0.9,2,2,2c1.45,0,2.26-1.44,1.93-2.51l4.55-4.56 c0.3,0.09,0.74,0.09,1.04,0l2.55,2.55C12.73,16.55,13.54,18,15,18c1.45,0,2.27-1.44,1.93-2.52l3.56-3.55 C21.56,12.26,23,11.45,23,10C23,8.9,22.1,8,21,8z"
         id="path6"
         style="fill:#ffffff" />
      <polygon
         points="15,9 15.94,6.93 18,6 15.94,5.07 15,3 14.08,5.07 12,6 14.08,6.93"
         id="polygon8"
         style="fill:#ffffff" />
      <polygon
         points="3.5,11 4,9 6,8.5 4,8 3.5,6 3,8 1,8.5 3,9"
         id="polygon10"
         style="fill:#ffffff" />
    </g>
  </g>
</svg>
