<?xml version="1.0" encoding="UTF-8" standalone="no"?>
<svg
   viewBox="0 0 24 24"
   fill="#fff"
   width="18"
   height="18"
   version="1.1"
   id="svg6"
   sodipodi:docname="plugins.svg"
   inkscape:version="1.1 (c68e22c387, 2021-05-23)"
   xmlns:inkscape="http://www.inkscape.org/namespaces/inkscape"
   xmlns:sodipodi="http://sodipodi.sourceforge.net/DTD/sodipodi-0.dtd"
   xmlns="http://www.w3.org/2000/svg"
   xmlns:svg="http://www.w3.org/2000/svg">
  <defs
     id="defs10" />
  <sodipodi:namedview
     id="namedview8"
     pagecolor="#ffffff"
     bordercolor="#666666"
     borderopacity="1.0"
     inkscape:pageshadow="2"
     inkscape:pageopacity="0.0"
     inkscape:pagecheckerboard="0"
     showgrid="false"
     inkscape:zoom="15.301005"
     inkscape:cx="12.515518"
     inkscape:cy="3.9539886"
     inkscape:window-width="1920"
     inkscape:window-height="1137"
     inkscape:window-x="-8"
     inkscape:window-y="-8"
     inkscape:window-maximized="1"
     inkscape:current-layer="svg6" />
  <path
     d="M20.5 11H19V7c0-1.1-.9-2-2-2h-4V3.5a2.5 2.5 0 00-5 0V5H4c-1.1 0-1.99.9-1.99 2v3.8H3.5c1.49 0 2.7 1.21 2.7 2.7s-1.21 2.7-2.7 2.7H2V20c0 1.1.9 2 2 2h3.8v-1.5c0-1.49 1.21-2.7 2.7-2.7 1.49 0 2.7 1.21 2.7 2.7V22H17c1.1 0 2-.9 2-2v-4h1.5a2.5 2.5 0 000-5z"
     id="path4"
     style="fill:#ffffff" />
</svg>
