<?xml version="1.0" encoding="UTF-8" standalone="no"?>
<svg
   viewBox="0 0 24 24"
   fill="#ffffff"
   width="24"
   height="24"
   version="1.1"
   id="svg6"
   sodipodi:docname="plugins.svg"
   inkscape:version="1.1 (c68e22c387, 2021-05-23)"
   xmlns:inkscape="http://www.inkscape.org/namespaces/inkscape"
   xmlns:sodipodi="http://sodipodi.sourceforge.net/DTD/sodipodi-0.dtd"
   xmlns="http://www.w3.org/2000/svg"
   xmlns:svg="http://www.w3.org/2000/svg">
  <defs
     id="defs10" />
  <sodipodi:namedview
     id="namedview8"
     pagecolor="#ffffff"
     bordercolor="#666666"
     borderopacity="1.0"
     inkscape:pageshadow="2"
     inkscape:pageopacity="0.0"
     inkscape:pagecheckerboard="0"
     showgrid="false"
     inkscape:zoom="15.301005"
     inkscape:cx="12.515518"
     inkscape:cy="3.9539886"
     inkscape:window-width="1920"
     inkscape:window-height="1137"
     inkscape:window-x="-8"
     inkscape:window-y="-8"
     inkscape:window-maximized="1"
     inkscape:current-layer="svg6"
     width="24px" />
  <path
     d="M 20.5,11 H 19 V 7 C 19,5.9 18.1,5 17,5 H 13 V 3.5 a 2.5,2.5 0 0 0 -5,0 V 5 H 4 C 2.9,5 2.01,5.9 2.01,7 v 3.8 H 3.5 c 1.49,0 2.7,1.21 2.7,2.7 0,1.49 -1.21,2.7 -2.7,2.7 H 2 V 20 c 0,1.1 0.9,2 2,2 h 3.8 v -1.5 c 0,-1.49 1.21,-2.7 2.7,-2.7 1.49,0 2.7,1.21 2.7,2.7 V 22 H 17 c 1.1,0 2,-0.9 2,-2 v -4 h 1.5 a 2.5,2.5 0 0 0 0,-5 z"
     id="path4"
     style="fill:#ffffff" />
</svg>
