<?xml version="1.0" encoding="UTF-8" standalone="no"?>
<svg
   viewBox="0 0 32 32"
   fill="#ffffff"
   width="24"
   height="24"
   version="1.1"
   id="svg947"
   sodipodi:docname="keybinds.svg"
   inkscape:version="1.1 (c68e22c387, 2021-05-23)"
   xmlns:inkscape="http://www.inkscape.org/namespaces/inkscape"
   xmlns:sodipodi="http://sodipodi.sourceforge.net/DTD/sodipodi-0.dtd"
   xmlns="http://www.w3.org/2000/svg"
   xmlns:svg="http://www.w3.org/2000/svg">
  <defs
     id="defs951" />
  <sodipodi:namedview
     id="namedview949"
     pagecolor="#ffffff"
     bordercolor="#666666"
     borderopacity="1.0"
     inkscape:pageshadow="2"
     inkscape:pageopacity="0.0"
     inkscape:pagecheckerboard="0"
     showgrid="false"
     inkscape:zoom="30.60201"
     inkscape:cx="6.2250813"
     inkscape:cy="11.224753"
     inkscape:window-width="1920"
     inkscape:window-height="1137"
     inkscape:window-x="-8"
     inkscape:window-y="-8"
     inkscape:window-maximized="1"
     inkscape:current-layer="svg947" />
  <path
     d="M 26.666667,6.6666665 H 5.3333332 c -1.4666667,0 -2.6533334,1.2 -2.6533334,2.6666667 L 2.6666665,22.666667 c 0,1.466667 1.2,2.666667 2.6666667,2.666667 H 26.666667 c 1.466667,0 2.666667,-1.2 2.666667,-2.666667 V 9.3333332 c 0,-1.4666667 -1.2,-2.6666667 -2.666667,-2.6666667 z m -12,4.0000005 h 2.666667 v 2.666667 h -2.666667 z m 0,4 h 2.666667 v 2.666667 h -2.666667 z m -4,-4 h 2.666667 v 2.666667 h -2.666667 z m 0,4 h 2.666667 v 2.666667 H 10.666667 Z M 9.3333332,17.333334 H 6.6666665 v -2.666667 h 2.6666667 z m 0,-4 H 6.6666665 V 10.666667 H 9.3333332 Z M 21.333334,22.666667 H 10.666667 V 20 h 10.666667 z m 0,-5.333333 h -2.666667 v -2.666667 h 2.666667 z m 0,-4 h -2.666667 v -2.666667 h 2.666667 z m 4,4 h -2.666667 v -2.666667 h 2.666667 z m 0,-4 h -2.666667 v -2.666667 h 2.666667 z"
     id="path943"
     style="fill:#ffffff;stroke-width:1.33333" />
</svg>
