<?xml version="1.0" encoding="UTF-8" standalone="no"?>
<svg
   viewBox="0 0 32 32"
   fill="#ffffff"
   width="24"
   height="24"
   version="1.1"
   id="svg1087"
   sodipodi:docname="language.svg"
   inkscape:version="1.1 (c68e22c387, 2021-05-23)"
   xmlns:inkscape="http://www.inkscape.org/namespaces/inkscape"
   xmlns:sodipodi="http://sodipodi.sourceforge.net/DTD/sodipodi-0.dtd"
   xmlns="http://www.w3.org/2000/svg"
   xmlns:svg="http://www.w3.org/2000/svg">
  <defs
     id="defs1091" />
  <sodipodi:namedview
     id="namedview1089"
     pagecolor="#ffffff"
     bordercolor="#666666"
     borderopacity="1.0"
     inkscape:pageshadow="2"
     inkscape:pageopacity="0.0"
     inkscape:pagecheckerboard="0"
     showgrid="false"
     inkscape:zoom="21.638889"
     inkscape:cx="8.156611"
     inkscape:cy="15.042362"
     inkscape:window-width="1920"
     inkscape:window-height="1137"
     inkscape:window-x="-8"
     inkscape:window-y="-8"
     inkscape:window-maximized="1"
     inkscape:current-layer="svg1087" />
  <path
     d="M 15.986667,2.6666665 C 8.6266665,2.6666665 2.6666665,8.6399998 2.6666665,16 c 0,7.359999 5.96,13.333334 13.3200005,13.333334 7.373332,0 13.346667,-5.973335 13.346667,-13.333334 0,-7.3600002 -5.973335,-13.3333335 -13.346667,-13.3333335 z m 9.24,8.0000005 h -3.933333 c -0.426668,-1.6666672 -1.040001,-3.2666672 -1.84,-4.7466672 2.453332,0.84 4.493333,2.5466667 5.773333,4.7466672 z M 16,5.3866665 c 1.106667,1.6 1.973334,3.3733333 2.546666,5.2800005 H 13.453333 C 14.026666,8.7599998 14.893334,6.9866665 16,5.3866665 Z M 5.6799998,18.666667 C 5.4666665,17.813334 5.3333332,16.92 5.3333332,16 c 0,-0.92 0.1333333,-1.813334 0.3466666,-2.666666 h 4.5066662 c -0.106666,0.88 -0.1866662,1.76 -0.1866662,2.666666 0,0.906666 0.08,1.786667 0.1866662,2.666667 z m 1.0933334,2.666667 H 10.706666 C 11.133333,23 11.746666,24.6 12.546666,26.08 10.093333,25.24 8.0533332,23.546666 6.7733332,21.333334 Z M 10.706666,10.666667 H 6.7733332 c 1.28,-2.2133338 3.3199998,-3.9066672 5.7733328,-4.7466672 -0.8,1.48 -1.413333,3.08 -1.84,4.7466672 z M 16,26.613334 c -1.106667,-1.6 -1.973334,-3.373334 -2.546667,-5.28 h 5.093333 c -0.573333,1.906666 -1.44,3.68 -2.546666,5.28 z m 3.12,-7.946667 H 12.88 C 12.759999,17.786667 12.666667,16.906666 12.666667,16 c 0,-0.906666 0.09333,-1.800001 0.213333,-2.666666 h 6.24 c 0.12,0.866666 0.213334,1.76 0.213334,2.666666 0,0.906666 -0.09333,1.786667 -0.213334,2.666667 z M 19.453334,26.08 c 0.8,-1.48 1.413333,-3.08 1.84,-4.746666 h 3.933332 c -1.28,2.199999 -3.32,3.906666 -5.773332,4.746666 z m 2.36,-7.413333 C 21.92,17.786667 22,16.906666 22,16 22,15.093334 21.92,14.213333 21.813334,13.333334 H 26.32 C 26.533333,14.186666 26.666667,15.08 26.666667,16 c 0,0.92 -0.133334,1.813334 -0.346667,2.666667 z"
     id="path1085"
     style="fill:#ffffff;stroke-width:1.33333" />
</svg>
