<?xml version="1.0" encoding="UTF-8" standalone="no"?>
<svg
   viewBox="0 0 24 24"
   fill="#ffffff"
   width="24"
   height="24"
   version="1.1"
   id="svg6"
   sodipodi:docname="voice-&amp;-video.svg"
   inkscape:version="1.1 (c68e22c387, 2021-05-23)"
   xmlns:inkscape="http://www.inkscape.org/namespaces/inkscape"
   xmlns:sodipodi="http://sodipodi.sourceforge.net/DTD/sodipodi-0.dtd"
   xmlns="http://www.w3.org/2000/svg"
   xmlns:svg="http://www.w3.org/2000/svg">
  <defs
     id="defs10" />
  <sodipodi:namedview
     id="namedview8"
     pagecolor="#ffffff"
     bordercolor="#666666"
     borderopacity="1.0"
     inkscape:pageshadow="2"
     inkscape:pageopacity="0.0"
     inkscape:pagecheckerboard="0"
     showgrid="false"
     width="24px"
     inkscape:zoom="21.638889"
     inkscape:cx="4.9216945"
     inkscape:cy="8.9422336"
     inkscape:window-width="1920"
     inkscape:window-height="1137"
     inkscape:window-x="-8"
     inkscape:window-y="-8"
     inkscape:window-maximized="1"
     inkscape:current-layer="svg6" />
  <path
     d="M 0,0 H 24 V 24 H 0 Z"
     fill="none"
     id="path2" />
  <path
     d="m 12,14 c 1.66,0 2.99,-1.34 2.99,-3 L 15,5 C 15,3.34 13.66,2 12,2 10.34,2 9,3.34 9,5 v 6 c 0,1.66 1.34,3 3,3 z m 5.3,-3 c 0,3 -2.54,5.1 -5.3,5.1 C 9.24,16.1 6.7,14 6.7,11 H 5 c 0,3.41 2.72,6.23 6,6.72 V 21 h 2 v -3.28 c 3.28,-0.48 6,-3.3 6,-6.72 z"
     id="path4" />
</svg>
