<?xml version="1.0" encoding="UTF-8" standalone="no"?>
<svg
   version="1.0"
   width="24"
   height="24"
   viewBox="0 0 24 24"
   id="svg4"
   sodipodi:docname="delete-server.svg"
   inkscape:version="1.1 (c68e22c387, 2021-05-23)"
   xmlns:inkscape="http://www.inkscape.org/namespaces/inkscape"
   xmlns:sodipodi="http://sodipodi.sourceforge.net/DTD/sodipodi-0.dtd"
   xmlns="http://www.w3.org/2000/svg"
   xmlns:svg="http://www.w3.org/2000/svg">
  <defs
     id="defs8" />
  <sodipodi:namedview
     id="namedview6"
     pagecolor="#ffffff"
     bordercolor="#666666"
     borderopacity="1.0"
     inkscape:pageshadow="2"
     inkscape:pageopacity="0.0"
     inkscape:pagecheckerboard="0"
     showgrid="false"
     scale-x="1"
     inkscape:zoom="12.171875"
     inkscape:cx="9.3247753"
     inkscape:cy="9.5712452"
     inkscape:window-width="1920"
     inkscape:window-height="1137"
     inkscape:window-x="-8"
     inkscape:window-y="-8"
     inkscape:window-maximized="1"
     inkscape:current-layer="svg4" />
  <path
     d="M 9,3 C 9,3.5 7.7,4 6,4 4.4,4 3,4.4 3,5 3,5.6 6.7,6 12,6 17.3,6 21,5.6 21,5 21,4.4 19.7,4 18,4 16.4,4 15,3.5 15,3 15,2.4 13.7,2 12,2 10.4,2 9,2.4 9,3 Z m -3.8,10.7 0.3,6.8 h 13 L 18.8,13.7 19.1,7 H 4.9 Z M 11,14 c 0,1.6 -0.4,3 -1,3 -0.5,0 -1,-1.4 -1,-3 0,-1.7 0.5,-3 1,-3 0.6,0 1,1.3 1,3 z m 4,0 c 0,1.6 -0.4,3 -1,3 -0.5,0 -1,-1.4 -1,-3 0,-1.7 0.5,-3 1,-3 0.6,0 1,1.3 1,3 z"
     id="path2"
     style="fill:#f04747;fill-opacity:1" />
</svg>
